<?xml version="1.0" encoding="UTF-8"?>
<svg version="1.1" xmlns="http://www.w3.org/2000/svg" width="400" height="400">
<path d="M0 0 C1.93112883 1.80269271 2.83592934 3.00996928 3.64453125 5.53515625 C3.27766058 10.27695145 2.25463693 12.54727746 -1.10913086 15.87231445 C-1.90343002 16.66946365 -2.69772919 17.46661285 -3.51609802 18.28791809 C-4.3796138 19.1287645 -5.24312958 19.9696109 -6.1328125 20.8359375 C-7.014496 21.71291794 -7.8961795 22.58989838 -8.80458069 23.49345398 C-11.14418501 25.81533706 -13.4944457 28.12569556 -15.85003662 30.43133545 C-17.77333357 32.31916193 -19.6853678 34.21817477 -21.59696102 36.11784077 C-25.54357106 40.03885995 -29.49876034 43.95135953 -33.47241211 47.8449707 C-34.17555038 48.53524857 -34.87868866 49.22552643 -35.60313416 49.9367218 C-37.83031272 51.96829668 -38.96978287 52.49160183 -41.984375 52.83203125 C-46.37497227 52.44537378 -49.42699059 50.79892696 -53.29296875 48.78515625 C-74.53112136 38.24492873 -98.178222 36.57908303 -120.7890625 43.6015625 C-133.43136748 48.20014402 -144.35301899 54.54581635 -154.35546875 63.53515625 C-155.01289063 64.12167969 -155.6703125 64.70820313 -156.34765625 65.3125 C-171.36126843 79.49202261 -180.72216743 101.48639262 -181.59375 121.9609375 C-181.99462982 139.61048404 -179.19796973 156.99446704 -169.6796875 172.21484375 C-168.35546875 174.53515625 -168.35546875 174.53515625 -168.23046875 177.84765625 C-169.80946641 183.02325968 -172.58301491 185.738364 -176.35546875 189.53515625 C-177.45447883 190.6601057 -178.55343259 191.78511017 -179.65234375 192.91015625 C-185.02511978 198.37210093 -190.40353479 203.76709508 -196.296875 208.671875 C-198.05309815 210.26147357 -199.64674322 211.88501633 -201.2578125 213.6171875 C-201.77907715 214.16874512 -202.3003418 214.72030273 -202.83740234 215.28857422 C-203.86772515 216.38637569 -204.8833167 217.49824945 -205.88134766 218.62548828 C-208.62037709 221.52351639 -210.06304025 222.49856425 -214.0703125 223 C-218.30291004 222.401095 -219.88718114 220.7965573 -222.35546875 217.53515625 C-223.13857422 216.5296875 -223.13857422 216.5296875 -223.9375 215.50390625 C-247.39560859 183.73220161 -254.84986596 141.41108803 -249.58642578 102.74023438 C-248.99663109 99.29369748 -248.23323209 95.91899753 -247.35546875 92.53515625 C-247.16210938 91.76171875 -246.96875 90.98828125 -246.76953125 90.19140625 C-240.46301396 65.588203 -229.13527091 43.62840409 -212.35546875 24.53515625 C-211.56527344 23.6121875 -210.77507812 22.68921875 -209.9609375 21.73828125 C-204.27002844 15.24974871 -198.18368835 9.79562419 -191.35546875 4.53515625 C-190.45441406 3.80683594 -189.55335938 3.07851562 -188.625 2.328125 C-134.57361079 -40.24200361 -55.42407325 -39.04650926 0 0 Z " fill="#5064FE" transform="translate(300.35546875,72.46484375)"/>
<path d="M0 0 C2.73724674 1.03508098 5.28505385 2.39358932 7.875 3.75 C28.88626776 14.20388199 53.06936146 16.03059214 75.39453125 8.60546875 C80.71104864 6.71132002 85.86737275 4.72272228 90.74609375 1.8515625 C94.70224975 -0.3995995 96.52167765 -0.86423765 101 0 C102.81019592 1.32029724 102.81019592 1.32029724 104.71118164 3.04858398 C105.76331345 4.00267654 105.76331345 4.00267654 106.83670044 4.9760437 C112.68901304 10.45139495 118.38632563 16.08024746 124.07495117 21.72485352 C125.65722061 23.29044511 127.24485198 24.85063518 128.83764648 26.40551758 C131.15266167 28.66589413 133.45090666 30.94216989 135.74609375 33.22265625 C136.45954453 33.91343765 137.1729953 34.60421906 137.9080658 35.31593323 C140.88292271 38.30373812 142.7675972 40.23976427 144.01635742 44.32470703 C143.9946302 47.8782434 143.26210451 49.2544261 141 52 C138.72510704 53.73089682 136.55856861 55.22067517 134.125 56.6875 C133.42665039 57.11321289 132.72830078 57.53892578 132.00878906 57.97753906 C93.96392859 80.63159971 50.75806292 87.63388948 7.68774414 77.09228516 C-9.25965195 72.72128685 -25.02783303 65.59656169 -39.8125 56.25 C-40.39338379 55.88543701 -40.97426758 55.52087402 -41.57275391 55.14526367 C-47.37654273 51.35554737 -47.37654273 51.35554737 -49 48 C-49.19694286 42.74566553 -47.80684277 40.38917953 -44.24633789 36.54931641 C-42.58728387 34.88446727 -40.91160443 33.23607677 -39.22265625 31.6015625 C-38.34097275 30.72599701 -37.45928925 29.85043152 -36.55088806 28.94833374 C-34.21300184 26.63279607 -31.86249336 24.33113922 -29.50543213 22.03515625 C-27.10655624 19.69077029 -24.72760335 17.32647336 -22.34570312 14.96484375 C-18.86567379 11.52695474 -15.38417313 8.09073969 -11.88305664 4.67431641 C-10.82834923 3.64342392 -10.82834923 3.64342392 -9.75233459 2.59170532 C-6.54746821 -0.31938421 -4.26566033 -0.3760907 0 0 Z " fill="#1F0155" transform="translate(160,275)"/>
<path d="M0 0 C10.24544897 8.87704997 16.29521212 19.20599491 17.53515625 32.75 C18.08112462 46.17025479 13.15236931 58.691136 4.21875 68.6640625 C-6.24677134 78.47839584 -18.20258478 81.45554746 -32.0390625 81.22265625 C-43.90969161 80.42876067 -54.96398911 74.74422175 -63.0078125 66.02734375 C-71.08121734 56.35031741 -74.53184518 45.06642254 -74.09765625 32.4609375 C-72.61691255 18.8442016 -66.50407798 8.48111156 -56.109375 -0.26953125 C-39.41736026 -12.51579697 -16.56394679 -12.63807629 0 0 Z " fill="#1F0155" transform="translate(235.71875,164.0234375)"/>
</svg>
